<?xml version="1.0" encoding="utf-8"?><svg viewBox="0 0 50 50" xmlns="http://www.w3.org/2000/svg" xmlns:xlink="http://www.w3.org/1999/xlink"><style>:root>svg{display:none}:root>svg:target{display:block}</style><svg fill="none" viewBox="0 0 50 50" id="btnClose" xmlns="http://www.w3.org/2000/svg"><path d="M0 0h50v50H9.21L0 40.79V0Z" fill="#FE8F3F"/><path d="M36 13 16 34m0-21 20 21" stroke="#fff" stroke-width="3"/></svg><svg fill="none" viewBox="0 0 42 42" id="discord" xmlns="http://www.w3.org/2000/svg"><path d="M42 42H0V0h36.167L42 5.833V42Z" fill="#808692"/><path fill-rule="evenodd" clip-rule="evenodd" d="M34.843 28.174a23.087 23.087 0 0 1-7.003 3.555.089.089 0 0 1-.098-.033 18.854 18.854 0 0 1-1.43-2.34.09.09 0 0 1 .049-.124c.762-.29 1.487-.637 2.184-1.046a.09.09 0 0 0 .008-.15 10.76 10.76 0 0 1-.434-.344.086.086 0 0 0-.092-.01c-4.529 2.104-9.49 2.104-14.072 0a.086.086 0 0 0-.09.012c-.14.116-.287.231-.434.342a.09.09 0 0 0 .009.15 15.34 15.34 0 0 0 2.184 1.047c.05.018.073.076.048.123-.41.821-.891 1.6-1.43 2.34a.09.09 0 0 1-.098.033 23.168 23.168 0 0 1-6.992-3.555.099.099 0 0 1-.036-.066c-.488-5.255.507-10.575 4.136-16.03a.078.078 0 0 1 .038-.032 22.909 22.909 0 0 1 5.699-1.778.09.09 0 0 1 .091.043c.248.441.53 1.005.722 1.467a21.23 21.23 0 0 1 6.4 0c.192-.452.464-1.026.71-1.466a.086.086 0 0 1 .092-.044c2 .347 3.915.955 5.7 1.778a.065.065 0 0 1 .035.034c3.162 4.678 4.725 9.954 4.14 16.03a.09.09 0 0 1-.036.064ZM16.357 24.91c1.402 0 2.516-1.274 2.516-2.839.022-1.553-1.104-2.838-2.516-2.838-1.402 0-2.516 1.274-2.516 2.838 0 1.565 1.136 2.839 2.516 2.839Zm9.303 0c1.413 0 2.517-1.274 2.517-2.839.022-1.553-1.104-2.838-2.517-2.838-1.401 0-2.516 1.274-2.516 2.838 0 1.565 1.137 2.839 2.517 2.839Z" fill="#fff"/><path fill-rule="evenodd" clip-rule="evenodd" d="M34.843 28.174a23.087 23.087 0 0 1-7.003 3.555.089.089 0 0 1-.098-.033 18.854 18.854 0 0 1-1.43-2.34.09.09 0 0 1 .049-.124c.762-.29 1.487-.637 2.184-1.046a.09.09 0 0 0 .008-.15 10.76 10.76 0 0 1-.434-.344.086.086 0 0 0-.092-.01c-4.529 2.104-9.49 2.104-14.072 0a.086.086 0 0 0-.09.012c-.14.116-.287.231-.434.342a.09.09 0 0 0 .009.15 15.34 15.34 0 0 0 2.184 1.047c.05.018.073.076.048.123-.41.821-.891 1.6-1.43 2.34a.09.09 0 0 1-.098.033 23.168 23.168 0 0 1-6.992-3.555.099.099 0 0 1-.036-.066c-.488-5.255.507-10.575 4.136-16.03a.078.078 0 0 1 .038-.032 22.909 22.909 0 0 1 5.699-1.778.09.09 0 0 1 .091.043c.248.441.53 1.005.722 1.467a21.23 21.23 0 0 1 6.4 0c.192-.452.464-1.026.71-1.466a.086.086 0 0 1 .092-.044c2 .347 3.915.955 5.7 1.778a.065.065 0 0 1 .035.034c3.162 4.678 4.725 9.954 4.14 16.03a.09.09 0 0 1-.036.064Zm-15.97-6.104c0 1.565-1.114 2.839-2.516 2.839-1.38 0-2.516-1.274-2.516-2.839 0-1.564 1.114-2.838 2.516-2.838 1.412 0 2.538 1.285 2.516 2.838Zm6.787 2.839c1.413 0 2.517-1.274 2.517-2.839.022-1.553-1.104-2.838-2.517-2.838-1.401 0-2.516 1.274-2.516 2.838 0 1.565 1.137 2.839 2.517 2.839Z" fill="#fff"/></svg><svg fill="none" viewBox="0 0 42 42" id="facebook" xmlns="http://www.w3.org/2000/svg"><path d="M42 42H0V0h36.167L42 5.833V42Z" fill="#808692"/><path d="m27.052 22.577.75-4.862h-4.69v-3.153c0-1.33.655-2.628 2.756-2.628H28V7.795s-1.935-.328-3.786-.328c-3.862 0-6.387 2.328-6.387 6.543v3.705h-4.294v4.862h4.294v11.752a17.19 17.19 0 0 0 5.285 0V22.577h3.94Z" fill="#fff"/></svg><svg fill="none" viewBox="0 0 42 42" id="instagram" xmlns="http://www.w3.org/2000/svg"><path d="M42 42H0V0h36.167L42 5.833V42Z" fill="#808692"/><g fill="#fff"><path fill-rule="evenodd" clip-rule="evenodd" d="M20.997 33.599a101.81 101.81 0 0 0 6.472-.177c1.459-.09 2.723-.562 3.759-1.407.957-.781 1.617-1.858 1.96-3.202.34-1.333.36-2.763.378-4.146.015-1.084.03-2.366.034-3.668a329.106 329.106 0 0 0-.034-3.666c-.019-1.384-.038-2.814-.378-4.147-.343-1.344-1.003-2.421-1.96-3.202-1.036-.845-2.3-1.318-3.759-1.406a101.951 101.951 0 0 0-6.466-.178 101.68 101.68 0 0 0-6.472.178c-1.459.088-2.723.561-3.76 1.406-.957.78-1.616 1.858-1.96 3.202-.34 1.333-.359 2.763-.378 4.146-.014 1.084-.03 2.368-.033 3.67.003 1.297.019 2.58.033 3.665.02 1.383.039 2.813.379 4.146.343 1.344 1.002 2.421 1.96 3.202 1.036.844 2.3 1.318 3.759 1.406 2.054.125 4.17.184 6.466.178Zm-7.348-12.6c0 4.021 3.272 7.292 7.292 7.292 4.021 0 7.292-3.27 7.292-7.291 0-4.021-3.27-7.292-7.292-7.292-4.02 0-7.291 3.27-7.291 7.292ZM27.3 13.126a1.75 1.75 0 1 1 3.5 0 1.75 1.75 0 0 1-3.5 0Z"/><path d="M20.941 16.041A4.964 4.964 0 0 0 15.983 21a4.964 4.964 0 0 0 4.958 4.958A4.964 4.964 0 0 0 25.9 21a4.964 4.964 0 0 0-4.959-4.959Z"/></g></svg><svg fill="none" viewBox="0 0 42 42" id="reddit" xmlns="http://www.w3.org/2000/svg"><path d="M42 42H0V0h36.167L42 5.833V42Z" fill="#808692"/><g fill="#fff"><path d="M16.276 22.794v.002h.886l-.886-.002ZM25.133 22.794v.002h.886l-.886-.002Z"/><path d="M35 20.103c0-1.98-1.59-3.59-3.543-3.59-.781 0-1.523.259-2.13.727-1.976-1.39-4.566-2.22-7.32-2.43l1.486-3.532 4.324 1.023c.138 1.355 1.258 2.418 2.63 2.418 1.465 0 2.658-1.208 2.658-2.693 0-1.484-1.193-2.692-2.658-2.692-.928 0-1.744.486-2.22 1.22l-5.053-1.197a.883.883 0 0 0-1.019.523L20.1 14.762c-2.974.104-5.808.953-7.948 2.432a3.44 3.44 0 0 0-2.076-.68c-1.954 0-3.543 1.61-3.543 3.59 0 1.311.707 2.498 1.791 3.106-.014.158-.02.32-.02.483 0 4.948 5.563 8.974 12.4 8.974 6.836 0 12.4-4.026 12.4-8.974 0-.14-.005-.278-.014-.416A3.561 3.561 0 0 0 35 20.103Zm-4.553-8.974c.488 0 .886.402.886.897a.893.893 0 0 1-.886.898.893.893 0 0 1-.885-.898c0-.495.398-.897.885-.897ZM14.505 22.796c0-.99.795-1.795 1.771-1.795.976 0 1.771.806 1.771 1.795 0 .99-.795 1.794-1.771 1.794-.976 0-1.771-.804-1.771-1.794Zm10.29 5.953a6.91 6.91 0 0 1-4.09 1.345 6.911 6.911 0 0 1-4.09-1.345.904.904 0 0 1-.2-1.253.88.88 0 0 1 1.237-.2 5.14 5.14 0 0 0 6.105 0 .878.878 0 0 1 1.236.2.906.906 0 0 1-.198 1.253Zm.338-4.159a1.784 1.784 0 0 1-1.771-1.794c0-.99.793-1.795 1.771-1.795.978 0 1.771.806 1.771 1.795 0 .99-.793 1.794-1.77 1.794Z"/></g></svg><svg fill="none" viewBox="0 0 42 42" id="telegram" xmlns="http://www.w3.org/2000/svg"><path d="M42 42H0V0h36.167L42 5.833V42Z" fill="#808692"/><path d="M6.882 19.87 31.3 11.305c1.133-.372 2.123.252 1.756 1.81l.002-.001L28.9 30.932c-.308 1.264-1.133 1.57-2.287.976l-6.332-4.245-3.054 2.676c-.337.307-.622.567-1.276.567l.45-5.862L28.133 15.4c.51-.409-.114-.64-.787-.232l-14.5 8.306L6.594 21.7c-1.357-.392-1.386-1.235.287-1.83Z" fill="#fff"/></svg><svg fill="none" viewBox="0 0 42 42" id="twitter" xmlns="http://www.w3.org/2000/svg"><path d="M42 42H0V0h36.167L42 5.833V42Z" fill="#808692"/><path d="M34.533 12.918c-1.006.45-2.079.748-3.197.893a5.603 5.603 0 0 0 2.441-3.124 10.967 10.967 0 0 1-3.518 1.368 5.514 5.514 0 0 0-4.054-1.788c-3.072 0-5.545 2.54-5.545 5.653 0 .448.037.879.129 1.289-4.614-.23-8.696-2.481-11.438-5.912a5.771 5.771 0 0 0-.76 2.857c0 1.957.99 3.692 2.466 4.697a5.404 5.404 0 0 1-2.508-.696v.062c0 2.747 1.924 5.028 4.446 5.553a5.447 5.447 0 0 1-1.455.186 4.82 4.82 0 0 1-1.05-.096c.719 2.238 2.759 3.884 5.185 3.937a11.021 11.021 0 0 1-6.88 2.41 10.2 10.2 0 0 1-1.328-.077 15.415 15.415 0 0 0 8.512 2.537c10.211 0 15.794-8.616 15.794-16.084 0-.25-.009-.49-.02-.73a11.186 11.186 0 0 0 2.78-2.935Z" fill="#fff"/></svg><svg fill="none" viewBox="0 0 42 42" id="youtube" xmlns="http://www.w3.org/2000/svg"><path d="M42 42H0V0h36.167L42 5.833V42Z" fill="#808692"/><path fill-rule="evenodd" clip-rule="evenodd" d="M31.904 12.251c1.22.316 2.181 1.238 2.51 2.409.61 2.138.586 6.595.586 6.595s0 4.434-.586 6.573c-.329 1.17-1.29 2.093-2.51 2.408-2.227.563-11.137.563-11.137.563s-8.888 0-11.139-.585c-1.219-.315-2.18-1.238-2.509-2.409-.586-2.116-.586-6.572-.586-6.572s0-4.435.586-6.573c.329-1.17 1.313-2.116 2.51-2.431 2.227-.563 11.137-.563 11.137-.563s8.91 0 11.139.585Zm-6.565 8.982-7.41 4.096v-8.193l7.41 4.097Z" fill="#fff"/></svg></svg>