<svg width="1552" height="702" fill="none" xmlns="http://www.w3.org/2000/svg"><path stroke="#22252B" stroke-width="5" d="M3.5 3.5h1545v695H3.5z"/><path d="M116 1h57m-57 0v58m0-58H58m115 0v58m0-58h58m-58 58h-57m57 0h58m-58 0v59m-57-59v59m0-59H58M231 1v58m0-58h57m-57 58h57m-57 0v59M288 1v58m0-58h58m-58 58h58m-58 0v59M346 1v58m0-58h57m-57 58h57m-57 0v59M403 1v58m0-58h57m-57 58h57m-57 0v59M460 1v58m0-58h58m-58 58h58m-58 0v59M518 1v58m0-58h57m-57 58h57m-57 0v59M575 1v58m0-58h58m-58 58h58m-58 0v59M633 1v58m0-58h57m-57 58h57m-57 0v59M690 1v58m0-58h57m-57 58h57m-57 0v59M747 1v58m0-58h58m-58 58h58m-58 0v59M805 1v58m0-58h57m-57 58h57m-57 0v59M862 1v58m0-58h57m-57 58h57m-57 0v59M919 1v58m0-58h58m-58 58h58m-58 0v59M977 1v58m0-58h57m-57 58h57m-57 0v59m57-117v58m0-58h58m-58 58h58m-58 0v59m58-117v58m0-58h57m-57 58h57m-57 0v59m57-117v58m0-58h57m-57 58h57m-57 0v59m57-117v58m0-58h58m-58 58h58m-58 0v59m58-117v58m0-58h57m-57 58h57m-57 0v59m57-117v58m0-58h58m-58 58h58m-58 0v59m58-117v58m0-58h57m-57 58h57m-57 0v59m57-117v58m0-58h58m-58 58v59m0-59h58M173 118h-57m57 0h58m-58 0v58m-57-58v58m0-58H58m173 0h57m-57 0v58m57-58h58m-58 0v58m58-58h57m-57 0v58m57-58h57m-57 0v58m57-58h58m-58 0v58m58-58h57m-57 0v58m57-58h58m-58 0v58m58-58h57m-57 0v58m57-58h57m-57 0v58m57-58h58m-58 0v58m58-58h57m-57 0v58m57-58h57m-57 0v58m57-58h58m-58 0v58m58-58h57m-57 0v58m57-58h58m-58 0v58m58-58h57m-57 0v58m57-58h57m-57 0v58m57-58h58m-58 0v58m58-58h57m-57 0v58m57-58h58m-58 0v58m58-58h57m-57 0v58m57-58v58m0-58h58M173 176h-57m57 0h58m-58 0v58m-57-58v58m0-58H58m173 0h57m-57 0v58m57-58h58m-58 0v58m58-58h57m-57 0v58m57-58h57m-57 0v58m57-58h58m-58 0v58m58-58h57m-57 0v58m57-58h58m-58 0v58m58-58h57m-57 0v58m57-58h57m-57 0v58m57-58h58m-58 0v58m58-58h57m-57 0v58m57-58h57m-57 0v58m57-58h58m-58 0v58m58-58h57m-57 0v58m57-58h58m-58 0v58m58-58h57m-57 0v58m57-58h57m-57 0v58m57-58h58m-58 0v58m58-58h57m-57 0v58m57-58h58m-58 0v58m58-58h57m-57 0v58m57-58v58m0-58h58M173 234h-57m57 0h58m-58 0v59m-57-59v59m0-59H58m173 0h57m-57 0v59m57-59h58m-58 0v59m58-59h57m-57 0v59m57-59h57m-57 0v59m57-59h58m-58 0v59m58-59h57m-57 0v59m57-59h58m-58 0v59m58-59h57m-57 0v59m57-59h57m-57 0v59m57-59h58m-58 0v59m58-59h57m-57 0v59m57-59h57m-57 0v59m57-59h58m-58 0v59m58-59h57m-57 0v59m57-59h58m-58 0v59m58-59h57m-57 0v59m57-59h57m-57 0v59m57-59h58m-58 0v59m58-59h57m-57 0v59m57-59h58m-58 0v59m58-59h57m-57 0v59m57-59v59m0-59h58M173 293h-57m57 0h58m-58 0v58m-57-58v58m0-58H58m173 0h57m-57 0v58m57-58h58m-58 0v58m58-58h57m-57 0v58m57-58h57m-57 0v58m57-58h58m-58 0v58m58-58h57m-57 0v58m57-58h58m-58 0v58m58-58h57m-57 0v58m57-58h57m-57 0v58m57-58h58m-58 0v58m58-58h57m-57 0v58m57-58h57m-57 0v58m57-58h58m-58 0v58m58-58h57m-57 0v58m57-58h58m-58 0v58m58-58h57m-57 0v58m57-58h57m-57 0v58m57-58h58m-58 0v58m58-58h57m-57 0v58m57-58h58m-58 0v58m58-58h57m-57 0v58m57-58v58m0-58h58M173 351h-57m57 0h58m-58 0v58m-57-58v58m0-58H58m173 0h57m-57 0v58m57-58h58m-58 0v58m58-58h57m-57 0v58m57-58h57m-57 0v58m57-58h58m-58 0v58m58-58h57m-57 0v58m57-58h58m-58 0v58m58-58h57m-57 0v58m57-58h57m-57 0v58m57-58h58m-58 0v58m58-58h57m-57 0v58m57-58h57m-57 0v58m57-58h58m-58 0v58m58-58h57m-57 0v58m57-58h58m-58 0v58m58-58h57m-57 0v58m57-58h57m-57 0v58m57-58h58m-58 0v58m58-58h57m-57 0v58m57-58h58m-58 0v58m58-58h57m-57 0v58m57-58v58m0-58h58M173 409h-57m57 0h58m-58 0v59m-57-59v59m0-59H58m173 0h57m-57 0v59m57-59h58m-58 0v59m58-59h57m-57 0v59m57-59h57m-57 0v59m57-59h58m-58 0v59m58-59h57m-57 0v59m57-59h58m-58 0v59m58-59h57m-57 0v59m57-59h57m-57 0v59m57-59h58m-58 0v59m58-59h57m-57 0v59m57-59h57m-57 0v59m57-59h58m-58 0v59m58-59h57m-57 0v59m57-59h58m-58 0v59m58-59h57m-57 0v59m57-59h57m-57 0v59m57-59h58m-58 0v59m58-59h57m-57 0v59m57-59h58m-58 0v59m58-59h57m-57 0v59m57-59v59m0-59h58M173 468h-57m57 0h58m-58 0v58m-57-58v58m0-58H58m173 0h57m-57 0v58m57-58h58m-58 0v58m58-58h57m-57 0v58m57-58h57m-57 0v58m57-58h58m-58 0v58m58-58h57m-57 0v58m57-58h58m-58 0v58m58-58h57m-57 0v58m57-58h57m-57 0v58m57-58h58m-58 0v58m58-58h57m-57 0v58m57-58h57m-57 0v58m57-58h58m-58 0v58m58-58h57m-57 0v58m57-58h58m-58 0v58m58-58h57m-57 0v58m57-58h57m-57 0v58m57-58h58m-58 0v58m58-58h57m-57 0v58m57-58h58m-58 0v58m58-58h57m-57 0v58m57-58v58m0-58h58M173 526h-57m57 0h58m-58 0v58m-57-58v58m0-58H58m173 0h57m-57 0v58m57-58h58m-58 0v58m58-58h57m-57 0v58m57-58h57m-57 0v58m57-58h58m-58 0v58m58-58h57m-57 0v58m57-58h58m-58 0v58m58-58h57m-57 0v58m57-58h57m-57 0v58m57-58h58m-58 0v58m58-58h57m-57 0v58m57-58h57m-57 0v58m57-58h58m-58 0v58m58-58h57m-57 0v58m57-58h58m-58 0v58m58-58h57m-57 0v58m57-58h57m-57 0v58m57-58h58m-58 0v58m58-58h57m-57 0v58m57-58h58m-58 0v58m58-58h57m-57 0v58m57-58v58m0-58h58M173 584h-57m57 0h58m-58 0v59m-57-59v59m0-59H58m173 0h57m-57 0v59m57-59h58m-58 0v59m58-59h57m-57 0v59m57-59h57m-57 0v59m57-59h58m-58 0v59m58-59h57m-57 0v59m57-59h58m-58 0v59m58-59h57m-57 0v59m57-59h57m-57 0v59m57-59h58m-58 0v59m58-59h57m-57 0v59m57-59h57m-57 0v59m57-59h58m-58 0v59m58-59h57m-57 0v59m57-59h58m-58 0v59m58-59h57m-57 0v59m57-59h57m-57 0v59m57-59h58m-58 0v59m58-59h57m-57 0v59m57-59h58m-58 0v59m58-59h57m-57 0v59m57-59v59m0-59h58M173 643h-57m57 0h58m-58 0v58m-57-58v58m0-58H58m173 0h57m-57 0v58m57-58h58m-58 0v58m58-58h57m-57 0v58m57-58h57m-57 0v58m57-58h58m-58 0v58m58-58h57m-57 0v58m57-58h58m-58 0v58m58-58h57m-57 0v58m57-58h57m-57 0v58m57-58h58m-58 0v58m58-58h57m-57 0v58m57-58h57m-57 0v58m57-58h58m-58 0v58m58-58h57m-57 0v58m57-58h58m-58 0v58m58-58h57m-57 0v58m57-58h57m-57 0v58m57-58h58m-58 0v58m58-58h57m-57 0v58m57-58h58m-58 0v58m58-58h57m-57 0v58m57-58v58m0-58h58M173 701h-57m57 0h58m-115 0H58m173 0h57m0 0h58m0 0h57m0 0h57m0 0h58m0 0h57m0 0h58m0 0h57m0 0h57m0 0h58m0 0h57m0 0h57m0 0h58m0 0h57m0 0h58m0 0h57m0 0h57m0 0h58m0 0h57m0 0h58m0 0h57m0 0h58m0-700v58m0-58h57v58m-57 0h57m-57 0v59m57-59v59m-57 0h57m-57 0v58m57-58v58m-57 0h57m-57 0v58m57-58v58m-57 0h57m-57 0v59m57-59v59m-57 0h57m-57 0v58m57-58v58m-57 0h57m-57 0v58m57-58v58m-57 0h57m-57 0v59m57-59v59m-57 0h57m-57 0v58m57-58v58m-57 0h57m-57 0v58m57-58v58m-57 0h57m-57 0v59m57-59v59m-57 0h57m-57 0v58m57-58v58h-57M58 1H1v58M58 1v58m0 0H1m57 0v59M1 59v59m57 0H1m57 0v58M1 118v58m57 0H1m57 0v58M1 176v58m57 0H1m57 0v59M1 234v59m57 0H1m57 0v58M1 293v58m57 0H1m57 0v58M1 351v58m57 0H1m57 0v59M1 409v59m57 0H1m57 0v58M1 468v58m57 0H1m57 0v58M1 526v58m57 0H1m57 0v59M1 584v59m57 0H1m57 0v58M1 643v58h57" stroke="#22252B" stroke-width="2"/></svg>